<?xml version="1.0" encoding="UTF-8" standalone="no"?>
<!-- Uploaded to: SVG Repo, www.svgrepo.com, Generator: SVG Repo Mixer Tools -->

<svg
   width="617.1875"
   height="694.29688"
   viewBox="0 0 790 888.7"
   class="icon"
   version="1.1"
   id="svg6"
   sodipodi:docname="database.svg"
   inkscape:version="1.4.2 (f4327f4, 2025-05-13)"
   xmlns:inkscape="http://www.inkscape.org/namespaces/inkscape"
   xmlns:sodipodi="http://sodipodi.sourceforge.net/DTD/sodipodi-0.dtd"
   xmlns="http://www.w3.org/2000/svg"
   xmlns:svg="http://www.w3.org/2000/svg">
  <defs
     id="defs6" />
  <sodipodi:namedview
     id="namedview6"
     pagecolor="#505050"
     bordercolor="#ffffff"
     borderopacity="1"
     inkscape:showpageshadow="0"
     inkscape:pageopacity="0"
     inkscape:pagecheckerboard="1"
     inkscape:deskcolor="#505050"
     inkscape:zoom="1.01625"
     inkscape:cx="308.97909"
     inkscape:cy="346.86347"
     inkscape:window-width="1920"
     inkscape:window-height="1094"
     inkscape:window-x="-11"
     inkscape:window-y="-11"
     inkscape:window-maximized="1"
     inkscape:current-layer="svg6" />
  <path
     d="m 0,540.7 v 178.5 c 1.5,93.7 155.7,169.5 395,169.5 239.3,0 393.4,-75.8 395,-169.5 V 540.7 Z"
     fill="#1b9bdb"
     id="path1" />
  <path
     d="M 790,540 C 790,639.4 635.2,720 395,720 154.8,720 0,639.4 0,540 0,440.6 154.8,360 395,360 c 240.2,0 395,80.5 395,180 z"
     fill="#ffffff"
     id="path2" />
  <path
     d="m 0,360.7 v 158.5 c 1.5,93.7 155.7,179.5 395,179.5 239.3,0 393.4,-85.8 395,-179.5 V 360.7 Z"
     fill="#1b9bdb"
     id="path3" />
  <path
     d="M 790,360 C 790,459.4 635.2,540 395,540 154.8,540 0,459.4 0,360 0,260.6 154.8,180 395,180 c 240.2,0 395,80.5 395,180 z"
     fill="#ffffff"
     id="path4" />
  <path
     d="m 0,180.7 v 158.5 c 1.5,93.7 155.7,179.5 395,179.5 239.3,0 393.4,-85.8 395,-179.5 V 180.7 Z"
     fill="#1b9bdb"
     id="path5" />
  <path
     d="M 790,180 C 790,279.4 635.2,360 395,360 154.8,360 0,279.4 0,180 0,80.6 154.8,0 395,0 635.2,0 790,80.5 790,180 Z"
     fill="#3ed6ff"
     id="path6" />
</svg>
