<?xml version="1.0" encoding="UTF-8" standalone="no"?>
<!DOCTYPE svg PUBLIC "-//W3C//DTD SVG 1.1//EN" "http://www.w3.org/Graphics/SVG/1.1/DTD/svg11.dtd">
<svg width="100%" height="100%" viewBox="0 0 7792 2471" version="1.1" xmlns="http://www.w3.org/2000/svg" xmlns:xlink="http://www.w3.org/1999/xlink" xml:space="preserve" xmlns:serif="http://www.serif.com/" style="fill-rule:evenodd;clip-rule:evenodd;stroke-linecap:square;stroke-miterlimit:1.5;">
    <g transform="matrix(4.16667,0,0,4.16667,0,0)">
        <g id="Ebene1" transform="matrix(1,0,0,1,-818.896,-946.2)">
            <g>
                <g transform="matrix(1,0,0,1,663.696,-526.413)">
                    <g transform="matrix(116.667,0,0,116.667,962.82,1925.71)">
                        <path d="M0.258,0.01C0.175,0.01 0.108,-0.001 0.057,-0.022L0.057,-0.118C0.086,-0.107 0.117,-0.099 0.15,-0.092C0.183,-0.085 0.215,-0.082 0.248,-0.082C0.299,-0.082 0.338,-0.088 0.364,-0.1C0.389,-0.112 0.402,-0.136 0.402,-0.172C0.402,-0.194 0.397,-0.212 0.386,-0.225C0.375,-0.238 0.358,-0.25 0.333,-0.26C0.308,-0.269 0.274,-0.279 0.231,-0.29C0.162,-0.308 0.113,-0.331 0.085,-0.359C0.057,-0.386 0.043,-0.424 0.043,-0.473C0.043,-0.53 0.064,-0.574 0.105,-0.606C0.146,-0.638 0.208,-0.654 0.29,-0.654C0.327,-0.654 0.363,-0.651 0.396,-0.646C0.429,-0.641 0.454,-0.635 0.473,-0.628L0.473,-0.532C0.422,-0.551 0.366,-0.561 0.305,-0.561C0.257,-0.561 0.22,-0.555 0.193,-0.542C0.166,-0.529 0.153,-0.506 0.153,-0.473C0.153,-0.454 0.158,-0.438 0.167,-0.426C0.176,-0.414 0.193,-0.404 0.216,-0.395C0.239,-0.386 0.27,-0.377 0.311,-0.366C0.364,-0.353 0.405,-0.337 0.434,-0.319C0.463,-0.3 0.483,-0.279 0.495,-0.255C0.506,-0.23 0.512,-0.203 0.512,-0.172C0.512,-0.115 0.491,-0.071 0.449,-0.039C0.407,-0.006 0.343,0.01 0.258,0.01Z" style="fill:rgb(38,38,38);fill-rule:nonzero;"/>
                    </g>
                    <g transform="matrix(116.667,0,0,116.667,1019.99,1925.71)">
                        <path d="M0.211,0.01C0.181,0.01 0.153,0.005 0.128,-0.006C0.102,-0.017 0.081,-0.033 0.066,-0.055C0.051,-0.076 0.043,-0.103 0.043,-0.135C0.043,-0.18 0.058,-0.217 0.09,-0.245C0.121,-0.272 0.168,-0.286 0.233,-0.286L0.385,-0.286L0.385,-0.307C0.385,-0.33 0.382,-0.348 0.375,-0.361C0.368,-0.374 0.355,-0.384 0.337,-0.39C0.318,-0.396 0.291,-0.399 0.256,-0.399C0.2,-0.399 0.148,-0.391 0.099,-0.374L0.099,-0.455C0.12,-0.464 0.146,-0.471 0.177,-0.476C0.208,-0.481 0.241,-0.484 0.276,-0.484C0.345,-0.484 0.398,-0.47 0.435,-0.442C0.471,-0.414 0.489,-0.368 0.489,-0.305L0.489,-0L0.396,-0L0.389,-0.048C0.37,-0.029 0.346,-0.015 0.318,-0.005C0.289,0.005 0.254,0.01 0.211,0.01ZM0.24,-0.068C0.273,-0.068 0.301,-0.074 0.326,-0.085C0.35,-0.096 0.37,-0.11 0.385,-0.129L0.385,-0.212L0.235,-0.212C0.203,-0.212 0.18,-0.206 0.166,-0.194C0.151,-0.181 0.144,-0.162 0.144,-0.137C0.144,-0.112 0.152,-0.095 0.169,-0.084C0.186,-0.073 0.209,-0.068 0.24,-0.068Z" style="fill:rgb(38,38,38);fill-rule:nonzero;"/>
                    </g>
                    <g transform="matrix(116.667,0,0,116.667,1077.97,1925.71)">
                        <path d="M0.063,-0L0.063,-0.474L0.163,-0.474L0.168,-0.424C0.191,-0.443 0.217,-0.457 0.245,-0.468C0.273,-0.479 0.303,-0.484 0.335,-0.484C0.369,-0.484 0.396,-0.478 0.415,-0.468C0.434,-0.456 0.448,-0.441 0.458,-0.422C0.48,-0.44 0.505,-0.455 0.534,-0.467C0.563,-0.478 0.597,-0.484 0.637,-0.484C0.692,-0.484 0.732,-0.47 0.758,-0.442C0.784,-0.414 0.797,-0.371 0.797,-0.313L0.797,-0L0.69,-0L0.69,-0.302C0.69,-0.339 0.682,-0.364 0.667,-0.379C0.652,-0.394 0.627,-0.401 0.592,-0.401C0.569,-0.401 0.548,-0.397 0.528,-0.389C0.507,-0.381 0.49,-0.369 0.475,-0.353C0.477,-0.346 0.478,-0.338 0.479,-0.33C0.48,-0.322 0.48,-0.313 0.48,-0.304L0.48,-0L0.379,-0L0.379,-0.301C0.379,-0.336 0.373,-0.361 0.361,-0.377C0.349,-0.393 0.326,-0.401 0.293,-0.401C0.27,-0.401 0.248,-0.396 0.227,-0.385C0.206,-0.374 0.187,-0.36 0.17,-0.345L0.17,-0L0.063,-0Z" style="fill:rgb(38,38,38);fill-rule:nonzero;"/>
                    </g>
                    <g transform="matrix(116.667,0,0,116.667,1172,1925.71)">
                        <path d="M0.063,-0L0.063,-0.474L0.163,-0.474L0.168,-0.424C0.191,-0.443 0.217,-0.457 0.245,-0.468C0.273,-0.479 0.303,-0.484 0.335,-0.484C0.369,-0.484 0.396,-0.478 0.415,-0.468C0.434,-0.456 0.448,-0.441 0.458,-0.422C0.48,-0.44 0.505,-0.455 0.534,-0.467C0.563,-0.478 0.597,-0.484 0.637,-0.484C0.692,-0.484 0.732,-0.47 0.758,-0.442C0.784,-0.414 0.797,-0.371 0.797,-0.313L0.797,-0L0.69,-0L0.69,-0.302C0.69,-0.339 0.682,-0.364 0.667,-0.379C0.652,-0.394 0.627,-0.401 0.592,-0.401C0.569,-0.401 0.548,-0.397 0.528,-0.389C0.507,-0.381 0.49,-0.369 0.475,-0.353C0.477,-0.346 0.478,-0.338 0.479,-0.33C0.48,-0.322 0.48,-0.313 0.48,-0.304L0.48,-0L0.379,-0L0.379,-0.301C0.379,-0.336 0.373,-0.361 0.361,-0.377C0.349,-0.393 0.326,-0.401 0.293,-0.401C0.27,-0.401 0.248,-0.396 0.227,-0.385C0.206,-0.374 0.187,-0.36 0.17,-0.345L0.17,-0L0.063,-0Z" style="fill:rgb(38,38,38);fill-rule:nonzero;"/>
                    </g>
                    <g transform="matrix(116.667,0,0,116.667,1266.04,1925.71)">
                        <path d="M0.181,0.01C0.142,0.01 0.113,0.001 0.093,-0.019C0.073,-0.038 0.063,-0.069 0.063,-0.113L0.063,-0.674L0.172,-0.674L0.172,-0.123C0.172,-0.104 0.175,-0.092 0.182,-0.085C0.189,-0.078 0.199,-0.075 0.212,-0.075C0.228,-0.075 0.243,-0.077 0.258,-0.081L0.258,-0.002C0.245,0.003 0.233,0.006 0.222,0.008C0.21,0.009 0.196,0.01 0.181,0.01Z" style="fill:rgb(38,38,38);fill-rule:nonzero;"/>
                    </g>
                    <g transform="matrix(116.667,0,0,116.667,1289.95,1925.71)">
                        <path d="M0.234,0.01C0.177,0.01 0.134,-0.006 0.104,-0.037C0.073,-0.068 0.058,-0.114 0.058,-0.175L0.058,-0.474L0.167,-0.474L0.167,-0.175C0.167,-0.14 0.176,-0.114 0.193,-0.097C0.21,-0.08 0.237,-0.072 0.273,-0.072C0.3,-0.072 0.324,-0.077 0.347,-0.087C0.37,-0.097 0.389,-0.11 0.406,-0.127L0.406,-0.474L0.514,-0.474L0.514,-0L0.415,-0L0.41,-0.049C0.389,-0.032 0.363,-0.018 0.334,-0.007C0.305,0.004 0.271,0.01 0.234,0.01Z" style="fill:rgb(38,38,38);fill-rule:nonzero;"/>
                    </g>
                    <g transform="matrix(116.667,0,0,116.667,1351.55,1925.71)">
                        <path d="M0.063,-0L0.063,-0.474L0.163,-0.474L0.168,-0.424C0.189,-0.441 0.215,-0.455 0.245,-0.467C0.274,-0.478 0.307,-0.484 0.343,-0.484C0.404,-0.484 0.449,-0.47 0.477,-0.441C0.505,-0.412 0.519,-0.368 0.519,-0.307L0.519,-0L0.411,-0L0.411,-0.302C0.411,-0.339 0.404,-0.364 0.389,-0.379C0.374,-0.394 0.345,-0.401 0.304,-0.401C0.279,-0.401 0.255,-0.396 0.232,-0.386C0.208,-0.376 0.188,-0.363 0.172,-0.347L0.172,-0L0.063,-0Z" style="fill:rgb(38,38,38);fill-rule:nonzero;"/>
                    </g>
                    <g transform="matrix(116.667,0,0,116.667,1413.15,1925.71)">
                        <path d="M0.255,0.176C0.22,0.176 0.184,0.174 0.149,0.17C0.114,0.165 0.084,0.159 0.059,0.15L0.059,0.066C0.086,0.075 0.116,0.081 0.151,0.086C0.186,0.091 0.219,0.093 0.25,0.093C0.298,0.093 0.333,0.09 0.355,0.085C0.377,0.08 0.388,0.068 0.388,0.049C0.388,0.035 0.383,0.025 0.372,0.02C0.361,0.014 0.341,0.011 0.311,0.011L0.183,0.011C0.097,0.011 0.054,-0.019 0.054,-0.08C0.054,-0.099 0.06,-0.117 0.071,-0.134C0.082,-0.151 0.1,-0.163 0.125,-0.172C0.098,-0.185 0.078,-0.204 0.065,-0.227C0.051,-0.25 0.045,-0.278 0.045,-0.311C0.045,-0.372 0.063,-0.416 0.1,-0.443C0.136,-0.47 0.19,-0.484 0.263,-0.484C0.278,-0.484 0.294,-0.483 0.311,-0.481C0.328,-0.478 0.341,-0.476 0.35,-0.474L0.524,-0.474L0.521,-0.403L0.441,-0.403C0.454,-0.392 0.463,-0.379 0.469,-0.363C0.475,-0.347 0.478,-0.33 0.478,-0.311C0.478,-0.26 0.463,-0.221 0.432,-0.192C0.401,-0.163 0.355,-0.148 0.293,-0.148C0.282,-0.148 0.273,-0.149 0.264,-0.15C0.255,-0.151 0.245,-0.152 0.234,-0.153C0.214,-0.151 0.196,-0.146 0.18,-0.137C0.164,-0.128 0.156,-0.117 0.156,-0.102C0.156,-0.092 0.16,-0.085 0.168,-0.081C0.176,-0.076 0.189,-0.074 0.208,-0.074L0.341,-0.074C0.388,-0.074 0.425,-0.064 0.451,-0.044C0.476,-0.023 0.489,0.006 0.489,0.045C0.489,0.092 0.469,0.125 0.429,0.146C0.388,0.166 0.33,0.176 0.255,0.176ZM0.263,-0.217C0.306,-0.217 0.337,-0.224 0.354,-0.239C0.371,-0.254 0.379,-0.279 0.379,-0.314C0.379,-0.349 0.371,-0.375 0.354,-0.391C0.337,-0.407 0.306,-0.415 0.263,-0.415C0.222,-0.415 0.193,-0.407 0.174,-0.392C0.155,-0.377 0.146,-0.351 0.146,-0.314C0.146,-0.28 0.155,-0.255 0.173,-0.24C0.19,-0.225 0.22,-0.217 0.263,-0.217Z" style="fill:rgb(38,38,38);fill-rule:nonzero;"/>
                    </g>
                    <g transform="matrix(116.667,0,0,116.667,1470.79,1925.71)">
                        <path d="M0.303,0.01C0.22,0.01 0.156,-0.01 0.111,-0.051C0.066,-0.092 0.043,-0.154 0.043,-0.238C0.043,-0.314 0.062,-0.374 0.101,-0.418C0.14,-0.462 0.198,-0.484 0.277,-0.484C0.349,-0.484 0.403,-0.465 0.44,-0.428C0.476,-0.39 0.494,-0.341 0.494,-0.282L0.494,-0.194L0.147,-0.194C0.152,-0.148 0.169,-0.116 0.197,-0.099C0.225,-0.082 0.268,-0.073 0.325,-0.073C0.349,-0.073 0.374,-0.075 0.399,-0.08C0.424,-0.085 0.446,-0.091 0.465,-0.098L0.465,-0.018C0.444,-0.009 0.419,-0.002 0.392,0.003C0.364,0.008 0.334,0.01 0.303,0.01ZM0.147,-0.265L0.398,-0.265L0.398,-0.298C0.398,-0.331 0.389,-0.356 0.371,-0.375C0.353,-0.393 0.323,-0.402 0.28,-0.402C0.229,-0.402 0.195,-0.391 0.176,-0.369C0.157,-0.347 0.147,-0.312 0.147,-0.265Z" style="fill:rgb(38,38,38);fill-rule:nonzero;"/>
                    </g>
                    <g transform="matrix(116.667,0,0,116.667,1527.6,1925.71)">
                        <path d="M0.063,-0L0.063,-0.474L0.163,-0.474L0.168,-0.424C0.189,-0.441 0.215,-0.455 0.245,-0.467C0.274,-0.478 0.307,-0.484 0.343,-0.484C0.404,-0.484 0.449,-0.47 0.477,-0.441C0.505,-0.412 0.519,-0.368 0.519,-0.307L0.519,-0L0.411,-0L0.411,-0.302C0.411,-0.339 0.404,-0.364 0.389,-0.379C0.374,-0.394 0.345,-0.401 0.304,-0.401C0.279,-0.401 0.255,-0.396 0.232,-0.386C0.208,-0.376 0.188,-0.363 0.172,-0.347L0.172,-0L0.063,-0Z" style="fill:rgb(38,38,38);fill-rule:nonzero;"/>
                    </g>
                    <g transform="matrix(116.667,0,0,116.667,1644.04,1925.71)">
                        <path d="M0.348,0.01C0.246,0.01 0.17,-0.017 0.119,-0.071C0.068,-0.124 0.043,-0.207 0.043,-0.32C0.043,-0.437 0.068,-0.522 0.119,-0.575C0.17,-0.628 0.246,-0.654 0.348,-0.654C0.451,-0.654 0.527,-0.628 0.578,-0.575C0.628,-0.522 0.653,-0.437 0.653,-0.32C0.653,-0.207 0.628,-0.124 0.578,-0.071C0.527,-0.017 0.451,0.01 0.348,0.01ZM0.348,-0.082C0.415,-0.082 0.465,-0.1 0.497,-0.138C0.528,-0.175 0.544,-0.235 0.544,-0.32C0.544,-0.409 0.528,-0.472 0.497,-0.508C0.465,-0.543 0.415,-0.561 0.348,-0.561C0.281,-0.561 0.232,-0.543 0.201,-0.508C0.169,-0.472 0.153,-0.409 0.153,-0.32C0.153,-0.235 0.169,-0.175 0.201,-0.138C0.232,-0.1 0.281,-0.082 0.348,-0.082Z" style="fill:rgb(38,38,38);fill-rule:nonzero;"/>
                    </g>
                    <g transform="matrix(116.667,0,0,116.667,1719.4,1925.71)">
                        <path d="M0.323,0.01C0.288,0.01 0.258,0.005 0.233,-0.004C0.208,-0.013 0.184,-0.028 0.163,-0.047L0.157,-0L0.063,-0L0.063,-0.674L0.172,-0.674L0.172,-0.443C0.213,-0.47 0.263,-0.484 0.321,-0.484C0.388,-0.484 0.442,-0.465 0.481,-0.427C0.52,-0.388 0.539,-0.326 0.539,-0.241C0.539,-0.155 0.52,-0.092 0.481,-0.051C0.442,-0.01 0.39,0.01 0.323,0.01ZM0.294,-0.072C0.343,-0.072 0.378,-0.086 0.399,-0.114C0.419,-0.142 0.429,-0.184 0.429,-0.241C0.429,-0.3 0.418,-0.341 0.396,-0.365C0.374,-0.389 0.339,-0.401 0.292,-0.401C0.243,-0.401 0.203,-0.387 0.172,-0.36L0.172,-0.122C0.203,-0.089 0.244,-0.072 0.294,-0.072Z" style="fill:rgb(38,38,38);fill-rule:nonzero;"/>
                    </g>
                    <g transform="matrix(116.667,0,0,116.667,1778.55,1925.71)">
                        <path d="M0.126,-0.573L0.126,-0.663L0.245,-0.663L0.245,-0.573L0.126,-0.573ZM0.091,0.234C0.052,0.234 0.019,0.229 -0.008,0.218L-0.008,0.139C0.003,0.142 0.014,0.145 0.025,0.147C0.035,0.148 0.044,0.149 0.053,0.149C0.084,0.149 0.106,0.143 0.119,0.132C0.131,0.121 0.137,0.102 0.137,0.076L0.137,-0.391L0.065,-0.391L0.075,-0.474L0.245,-0.474L0.245,0.086C0.245,0.131 0.232,0.167 0.207,0.194C0.181,0.221 0.142,0.234 0.091,0.234Z" style="fill:rgb(38,38,38);fill-rule:nonzero;"/>
                    </g>
                    <g transform="matrix(116.667,0,0,116.667,1808.65,1925.71)">
                        <path d="M0.303,0.01C0.22,0.01 0.156,-0.01 0.111,-0.051C0.066,-0.092 0.043,-0.154 0.043,-0.238C0.043,-0.314 0.062,-0.374 0.101,-0.418C0.14,-0.462 0.198,-0.484 0.277,-0.484C0.349,-0.484 0.403,-0.465 0.44,-0.428C0.476,-0.39 0.494,-0.341 0.494,-0.282L0.494,-0.194L0.147,-0.194C0.152,-0.148 0.169,-0.116 0.197,-0.099C0.225,-0.082 0.268,-0.073 0.325,-0.073C0.349,-0.073 0.374,-0.075 0.399,-0.08C0.424,-0.085 0.446,-0.091 0.465,-0.098L0.465,-0.018C0.444,-0.009 0.419,-0.002 0.392,0.003C0.364,0.008 0.334,0.01 0.303,0.01ZM0.147,-0.265L0.398,-0.265L0.398,-0.298C0.398,-0.331 0.389,-0.356 0.371,-0.375C0.353,-0.393 0.323,-0.402 0.28,-0.402C0.229,-0.402 0.195,-0.391 0.176,-0.369C0.157,-0.347 0.147,-0.312 0.147,-0.265Z" style="fill:rgb(38,38,38);fill-rule:nonzero;"/>
                    </g>
                    <g transform="matrix(116.667,0,0,116.667,1865.47,1925.71)">
                        <path d="M0.063,-0L0.063,-0.674L0.172,-0.674L0.172,-0.284L0.371,-0.474L0.496,-0.474L0.303,-0.283L0.507,-0L0.392,-0L0.235,-0.225L0.172,-0.165L0.172,-0L0.063,-0Z" style="fill:rgb(38,38,38);fill-rule:nonzero;"/>
                    </g>
                    <g transform="matrix(116.667,0,0,116.667,1918.2,1925.71)">
                        <path d="M0.244,0.01C0.193,0.01 0.156,-0.003 0.131,-0.031C0.106,-0.058 0.093,-0.094 0.093,-0.141L0.093,-0.389L0.023,-0.389L0.023,-0.474L0.093,-0.474L0.093,-0.583L0.201,-0.616L0.201,-0.474L0.327,-0.474L0.32,-0.389L0.201,-0.389L0.201,-0.147C0.201,-0.12 0.207,-0.1 0.22,-0.09C0.233,-0.079 0.253,-0.073 0.282,-0.073C0.3,-0.073 0.319,-0.076 0.339,-0.083L0.339,-0.006C0.313,0.005 0.281,0.01 0.244,0.01Z" style="fill:rgb(38,38,38);fill-rule:nonzero;"/>
                    </g>
                    <g transform="matrix(116.667,0,0,116.667,1954.25,1925.71)">
                        <path d="M0.303,0.01C0.22,0.01 0.156,-0.01 0.111,-0.051C0.066,-0.092 0.043,-0.154 0.043,-0.238C0.043,-0.314 0.062,-0.374 0.101,-0.418C0.14,-0.462 0.198,-0.484 0.277,-0.484C0.349,-0.484 0.403,-0.465 0.44,-0.428C0.476,-0.39 0.494,-0.341 0.494,-0.282L0.494,-0.194L0.147,-0.194C0.152,-0.148 0.169,-0.116 0.197,-0.099C0.225,-0.082 0.268,-0.073 0.325,-0.073C0.349,-0.073 0.374,-0.075 0.399,-0.08C0.424,-0.085 0.446,-0.091 0.465,-0.098L0.465,-0.018C0.444,-0.009 0.419,-0.002 0.392,0.003C0.364,0.008 0.334,0.01 0.303,0.01ZM0.147,-0.265L0.398,-0.265L0.398,-0.298C0.398,-0.331 0.389,-0.356 0.371,-0.375C0.353,-0.393 0.323,-0.402 0.28,-0.402C0.229,-0.402 0.195,-0.391 0.176,-0.369C0.157,-0.347 0.147,-0.312 0.147,-0.265Z" style="fill:rgb(38,38,38);fill-rule:nonzero;"/>
                    </g>
                    <g transform="matrix(116.667,0,0,116.667,962.82,2034.04)">
                        <path d="M0.063,-0L0.063,-0.644L0.324,-0.644C0.419,-0.644 0.49,-0.619 0.536,-0.569C0.582,-0.518 0.605,-0.435 0.605,-0.318C0.605,-0.208 0.582,-0.128 0.537,-0.077C0.492,-0.025 0.421,-0 0.324,-0L0.063,-0ZM0.172,-0.084L0.307,-0.084C0.349,-0.084 0.384,-0.09 0.412,-0.103C0.44,-0.115 0.461,-0.138 0.475,-0.172C0.489,-0.206 0.496,-0.255 0.496,-0.318C0.496,-0.381 0.49,-0.43 0.477,-0.465C0.464,-0.5 0.444,-0.524 0.417,-0.538C0.389,-0.552 0.352,-0.559 0.307,-0.559L0.172,-0.559L0.172,-0.084Z" style="fill:rgb(38,38,38);fill-rule:nonzero;"/>
                    </g>
                    <g transform="matrix(116.667,0,0,116.667,1030.95,2034.04)">
                        <path d="M0.211,0.01C0.181,0.01 0.153,0.005 0.128,-0.006C0.102,-0.017 0.081,-0.033 0.066,-0.055C0.051,-0.076 0.043,-0.103 0.043,-0.135C0.043,-0.18 0.058,-0.217 0.09,-0.245C0.121,-0.272 0.168,-0.286 0.233,-0.286L0.385,-0.286L0.385,-0.307C0.385,-0.33 0.382,-0.348 0.375,-0.361C0.368,-0.374 0.355,-0.384 0.337,-0.39C0.318,-0.396 0.291,-0.399 0.256,-0.399C0.2,-0.399 0.148,-0.391 0.099,-0.374L0.099,-0.455C0.12,-0.464 0.146,-0.471 0.177,-0.476C0.208,-0.481 0.241,-0.484 0.276,-0.484C0.345,-0.484 0.398,-0.47 0.435,-0.442C0.471,-0.414 0.489,-0.368 0.489,-0.305L0.489,-0L0.396,-0L0.389,-0.048C0.37,-0.029 0.346,-0.015 0.318,-0.005C0.289,0.005 0.254,0.01 0.211,0.01ZM0.24,-0.068C0.273,-0.068 0.301,-0.074 0.326,-0.085C0.35,-0.096 0.37,-0.11 0.385,-0.129L0.385,-0.212L0.235,-0.212C0.203,-0.212 0.18,-0.206 0.166,-0.194C0.151,-0.181 0.144,-0.162 0.144,-0.137C0.144,-0.112 0.152,-0.095 0.169,-0.084C0.186,-0.073 0.209,-0.068 0.24,-0.068Z" style="fill:rgb(38,38,38);fill-rule:nonzero;"/>
                    </g>
                    <g transform="matrix(116.667,0,0,116.667,1088.94,2034.04)">
                        <path d="M0.244,0.01C0.193,0.01 0.156,-0.003 0.131,-0.031C0.106,-0.058 0.093,-0.094 0.093,-0.141L0.093,-0.389L0.023,-0.389L0.023,-0.474L0.093,-0.474L0.093,-0.583L0.201,-0.616L0.201,-0.474L0.327,-0.474L0.32,-0.389L0.201,-0.389L0.201,-0.147C0.201,-0.12 0.207,-0.1 0.22,-0.09C0.233,-0.079 0.253,-0.073 0.282,-0.073C0.3,-0.073 0.319,-0.076 0.339,-0.083L0.339,-0.006C0.313,0.005 0.281,0.01 0.244,0.01Z" style="fill:rgb(38,38,38);fill-rule:nonzero;"/>
                    </g>
                    <g transform="matrix(116.667,0,0,116.667,1124.99,2034.04)">
                        <path d="M0.303,0.01C0.22,0.01 0.156,-0.01 0.111,-0.051C0.066,-0.092 0.043,-0.154 0.043,-0.238C0.043,-0.314 0.062,-0.374 0.101,-0.418C0.14,-0.462 0.198,-0.484 0.277,-0.484C0.349,-0.484 0.403,-0.465 0.44,-0.428C0.476,-0.39 0.494,-0.341 0.494,-0.282L0.494,-0.194L0.147,-0.194C0.152,-0.148 0.169,-0.116 0.197,-0.099C0.225,-0.082 0.268,-0.073 0.325,-0.073C0.349,-0.073 0.374,-0.075 0.399,-0.08C0.424,-0.085 0.446,-0.091 0.465,-0.098L0.465,-0.018C0.444,-0.009 0.419,-0.002 0.392,0.003C0.364,0.008 0.334,0.01 0.303,0.01ZM0.147,-0.265L0.398,-0.265L0.398,-0.298C0.398,-0.331 0.389,-0.356 0.371,-0.375C0.353,-0.393 0.323,-0.402 0.28,-0.402C0.229,-0.402 0.195,-0.391 0.176,-0.369C0.157,-0.347 0.147,-0.312 0.147,-0.265Z" style="fill:rgb(38,38,38);fill-rule:nonzero;"/>
                    </g>
                    <g transform="matrix(116.667,0,0,116.667,1181.8,2034.04)">
                        <path d="M0.063,-0L0.063,-0.474L0.163,-0.474L0.168,-0.424C0.189,-0.441 0.215,-0.455 0.245,-0.467C0.274,-0.478 0.307,-0.484 0.343,-0.484C0.404,-0.484 0.449,-0.47 0.477,-0.441C0.505,-0.412 0.519,-0.368 0.519,-0.307L0.519,-0L0.411,-0L0.411,-0.302C0.411,-0.339 0.404,-0.364 0.389,-0.379C0.374,-0.394 0.345,-0.401 0.304,-0.401C0.279,-0.401 0.255,-0.396 0.232,-0.386C0.208,-0.376 0.188,-0.363 0.172,-0.347L0.172,-0L0.063,-0Z" style="fill:rgb(38,38,38);fill-rule:nonzero;"/>
                    </g>
                    <g transform="matrix(116.667,0,0,116.667,1243.4,2034.04)">
                        <path d="M0.063,-0L0.063,-0.674L0.172,-0.674L0.172,-0.284L0.371,-0.474L0.496,-0.474L0.303,-0.283L0.507,-0L0.392,-0L0.235,-0.225L0.172,-0.165L0.172,-0L0.063,-0Z" style="fill:rgb(38,38,38);fill-rule:nonzero;"/>
                    </g>
                    <g transform="matrix(116.667,0,0,116.667,1292.64,2034.04)">
                        <path d="M0.29,0.01C0.205,0.01 0.142,-0.011 0.103,-0.054C0.063,-0.097 0.043,-0.158 0.043,-0.237C0.043,-0.316 0.063,-0.377 0.103,-0.42C0.143,-0.463 0.205,-0.484 0.29,-0.484C0.375,-0.484 0.438,-0.463 0.478,-0.42C0.518,-0.377 0.538,-0.316 0.538,-0.237C0.538,-0.158 0.518,-0.097 0.479,-0.054C0.439,-0.011 0.376,0.01 0.29,0.01ZM0.29,-0.082C0.34,-0.082 0.376,-0.094 0.397,-0.119C0.418,-0.143 0.428,-0.182 0.428,-0.237C0.428,-0.292 0.418,-0.331 0.397,-0.355C0.376,-0.379 0.34,-0.391 0.29,-0.391C0.241,-0.391 0.206,-0.379 0.185,-0.355C0.164,-0.331 0.153,-0.292 0.153,-0.237C0.153,-0.182 0.164,-0.143 0.185,-0.119C0.206,-0.094 0.241,-0.082 0.29,-0.082Z" style="fill:rgb(38,38,38);fill-rule:nonzero;"/>
                    </g>
                    <g transform="matrix(116.667,0,0,116.667,1354.59,2034.04)">
                        <path d="M0.063,-0L0.063,-0.474L0.163,-0.474L0.168,-0.424C0.191,-0.443 0.217,-0.457 0.245,-0.468C0.273,-0.479 0.303,-0.484 0.335,-0.484C0.369,-0.484 0.396,-0.478 0.415,-0.468C0.434,-0.456 0.448,-0.441 0.458,-0.422C0.48,-0.44 0.505,-0.455 0.534,-0.467C0.563,-0.478 0.597,-0.484 0.637,-0.484C0.692,-0.484 0.732,-0.47 0.758,-0.442C0.784,-0.414 0.797,-0.371 0.797,-0.313L0.797,-0L0.69,-0L0.69,-0.302C0.69,-0.339 0.682,-0.364 0.667,-0.379C0.652,-0.394 0.627,-0.401 0.592,-0.401C0.569,-0.401 0.548,-0.397 0.528,-0.389C0.507,-0.381 0.49,-0.369 0.475,-0.353C0.477,-0.346 0.478,-0.338 0.479,-0.33C0.48,-0.322 0.48,-0.313 0.48,-0.304L0.48,-0L0.379,-0L0.379,-0.301C0.379,-0.336 0.373,-0.361 0.361,-0.377C0.349,-0.393 0.326,-0.401 0.293,-0.401C0.27,-0.401 0.248,-0.396 0.227,-0.385C0.206,-0.374 0.187,-0.36 0.17,-0.345L0.17,-0L0.063,-0Z" style="fill:rgb(38,38,38);fill-rule:nonzero;"/>
                    </g>
                    <g transform="matrix(116.667,0,0,116.667,1448.62,2034.04)">
                        <path d="M0.063,0.216L0.063,-0.474L0.157,-0.474L0.163,-0.427C0.184,-0.446 0.208,-0.461 0.233,-0.47C0.258,-0.479 0.288,-0.484 0.323,-0.484C0.391,-0.484 0.444,-0.466 0.482,-0.429C0.52,-0.392 0.539,-0.33 0.539,-0.245C0.539,-0.16 0.519,-0.096 0.48,-0.054C0.441,-0.011 0.387,0.01 0.319,0.01C0.262,0.01 0.213,-0.003 0.172,-0.03L0.172,0.216L0.063,0.216ZM0.291,-0.072C0.383,-0.072 0.429,-0.13 0.429,-0.246C0.429,-0.302 0.419,-0.342 0.398,-0.366C0.377,-0.389 0.343,-0.401 0.294,-0.401C0.245,-0.401 0.205,-0.384 0.172,-0.351L0.172,-0.114C0.187,-0.101 0.205,-0.091 0.224,-0.084C0.243,-0.076 0.265,-0.072 0.291,-0.072Z" style="fill:rgb(38,38,38);fill-rule:nonzero;"/>
                    </g>
                    <g transform="matrix(116.667,0,0,116.667,1510.69,2034.04)">
                        <path d="M0.303,0.01C0.22,0.01 0.156,-0.01 0.111,-0.051C0.066,-0.092 0.043,-0.154 0.043,-0.238C0.043,-0.314 0.062,-0.374 0.101,-0.418C0.14,-0.462 0.198,-0.484 0.277,-0.484C0.349,-0.484 0.403,-0.465 0.44,-0.428C0.476,-0.39 0.494,-0.341 0.494,-0.282L0.494,-0.194L0.147,-0.194C0.152,-0.148 0.169,-0.116 0.197,-0.099C0.225,-0.082 0.268,-0.073 0.325,-0.073C0.349,-0.073 0.374,-0.075 0.399,-0.08C0.424,-0.085 0.446,-0.091 0.465,-0.098L0.465,-0.018C0.444,-0.009 0.419,-0.002 0.392,0.003C0.364,0.008 0.334,0.01 0.303,0.01ZM0.147,-0.265L0.398,-0.265L0.398,-0.298C0.398,-0.331 0.389,-0.356 0.371,-0.375C0.353,-0.393 0.323,-0.402 0.28,-0.402C0.229,-0.402 0.195,-0.391 0.176,-0.369C0.157,-0.347 0.147,-0.312 0.147,-0.265Z" style="fill:rgb(38,38,38);fill-rule:nonzero;"/>
                    </g>
                    <g transform="matrix(116.667,0,0,116.667,1567.5,2034.04)">
                        <path d="M0.244,0.01C0.193,0.01 0.156,-0.003 0.131,-0.031C0.106,-0.058 0.093,-0.094 0.093,-0.141L0.093,-0.389L0.023,-0.389L0.023,-0.474L0.093,-0.474L0.093,-0.583L0.201,-0.616L0.201,-0.474L0.327,-0.474L0.32,-0.389L0.201,-0.389L0.201,-0.147C0.201,-0.12 0.207,-0.1 0.22,-0.09C0.233,-0.079 0.253,-0.073 0.282,-0.073C0.3,-0.073 0.319,-0.076 0.339,-0.083L0.339,-0.006C0.313,0.005 0.281,0.01 0.244,0.01Z" style="fill:rgb(38,38,38);fill-rule:nonzero;"/>
                    </g>
                    <g transform="matrix(116.667,0,0,116.667,1603.55,2034.04)">
                        <path d="M0.303,0.01C0.22,0.01 0.156,-0.01 0.111,-0.051C0.066,-0.092 0.043,-0.154 0.043,-0.238C0.043,-0.314 0.062,-0.374 0.101,-0.418C0.14,-0.462 0.198,-0.484 0.277,-0.484C0.349,-0.484 0.403,-0.465 0.44,-0.428C0.476,-0.39 0.494,-0.341 0.494,-0.282L0.494,-0.194L0.147,-0.194C0.152,-0.148 0.169,-0.116 0.197,-0.099C0.225,-0.082 0.268,-0.073 0.325,-0.073C0.349,-0.073 0.374,-0.075 0.399,-0.08C0.424,-0.085 0.446,-0.091 0.465,-0.098L0.465,-0.018C0.444,-0.009 0.419,-0.002 0.392,0.003C0.364,0.008 0.334,0.01 0.303,0.01ZM0.147,-0.265L0.398,-0.265L0.398,-0.298C0.398,-0.331 0.389,-0.356 0.371,-0.375C0.353,-0.393 0.323,-0.402 0.28,-0.402C0.229,-0.402 0.195,-0.391 0.176,-0.369C0.157,-0.347 0.147,-0.312 0.147,-0.265Z" style="fill:rgb(38,38,38);fill-rule:nonzero;"/>
                    </g>
                    <g transform="matrix(116.667,0,0,116.667,1660.37,2034.04)">
                        <path d="M0.063,-0L0.063,-0.474L0.163,-0.474L0.168,-0.424C0.189,-0.441 0.215,-0.455 0.245,-0.467C0.274,-0.478 0.307,-0.484 0.343,-0.484C0.404,-0.484 0.449,-0.47 0.477,-0.441C0.505,-0.412 0.519,-0.368 0.519,-0.307L0.519,-0L0.411,-0L0.411,-0.302C0.411,-0.339 0.404,-0.364 0.389,-0.379C0.374,-0.394 0.345,-0.401 0.304,-0.401C0.279,-0.401 0.255,-0.396 0.232,-0.386C0.208,-0.376 0.188,-0.363 0.172,-0.347L0.172,-0L0.063,-0Z" style="fill:rgb(38,38,38);fill-rule:nonzero;"/>
                    </g>
                    <g transform="matrix(116.667,0,0,116.667,1721.97,2034.04)">
                        <path d="M0.043,-0L0.043,-0.057L0.302,-0.385L0.055,-0.385L0.055,-0.474L0.436,-0.474L0.436,-0.407L0.182,-0.084L0.443,-0.084L0.443,-0L0.043,-0Z" style="fill:rgb(38,38,38);fill-rule:nonzero;"/>
                    </g>
                    <g transform="matrix(116.667,0,0,116.667,1770.62,2034.04)">
                        <path d="M0.303,0.01C0.22,0.01 0.156,-0.01 0.111,-0.051C0.066,-0.092 0.043,-0.154 0.043,-0.238C0.043,-0.314 0.062,-0.374 0.101,-0.418C0.14,-0.462 0.198,-0.484 0.277,-0.484C0.349,-0.484 0.403,-0.465 0.44,-0.428C0.476,-0.39 0.494,-0.341 0.494,-0.282L0.494,-0.194L0.147,-0.194C0.152,-0.148 0.169,-0.116 0.197,-0.099C0.225,-0.082 0.268,-0.073 0.325,-0.073C0.349,-0.073 0.374,-0.075 0.399,-0.08C0.424,-0.085 0.446,-0.091 0.465,-0.098L0.465,-0.018C0.444,-0.009 0.419,-0.002 0.392,0.003C0.364,0.008 0.334,0.01 0.303,0.01ZM0.147,-0.265L0.398,-0.265L0.398,-0.298C0.398,-0.331 0.389,-0.356 0.371,-0.375C0.353,-0.393 0.323,-0.402 0.28,-0.402C0.229,-0.402 0.195,-0.391 0.176,-0.369C0.157,-0.347 0.147,-0.312 0.147,-0.265Z" style="fill:rgb(38,38,38);fill-rule:nonzero;"/>
                    </g>
                    <g transform="matrix(116.667,0,0,116.667,1827.44,2034.04)">
                        <path d="M0.063,-0L0.063,-0.474L0.163,-0.474L0.168,-0.424C0.189,-0.441 0.215,-0.455 0.245,-0.467C0.274,-0.478 0.307,-0.484 0.343,-0.484C0.404,-0.484 0.449,-0.47 0.477,-0.441C0.505,-0.412 0.519,-0.368 0.519,-0.307L0.519,-0L0.411,-0L0.411,-0.302C0.411,-0.339 0.404,-0.364 0.389,-0.379C0.374,-0.394 0.345,-0.401 0.304,-0.401C0.279,-0.401 0.255,-0.396 0.232,-0.386C0.208,-0.376 0.188,-0.363 0.172,-0.347L0.172,-0L0.063,-0Z" style="fill:rgb(38,38,38);fill-rule:nonzero;"/>
                    </g>
                </g>
                <g transform="matrix(1,0,0,1,960.12,707.34)">
                    <g transform="matrix(500,0,0,500,321.376,572.232)">
                        <path d="M0.259,0.01C0.179,0.01 0.114,0 0.065,-0.02L0.065,-0.093C0.093,-0.082 0.123,-0.074 0.155,-0.069C0.186,-0.063 0.219,-0.06 0.252,-0.06C0.309,-0.06 0.352,-0.068 0.381,-0.084C0.41,-0.099 0.424,-0.127 0.424,-0.168C0.424,-0.193 0.418,-0.214 0.407,-0.229C0.395,-0.244 0.376,-0.256 0.349,-0.267C0.322,-0.277 0.287,-0.287 0.242,-0.298C0.171,-0.315 0.122,-0.338 0.093,-0.366C0.064,-0.393 0.05,-0.43 0.05,-0.477C0.05,-0.532 0.07,-0.575 0.109,-0.607C0.148,-0.638 0.208,-0.654 0.289,-0.654C0.326,-0.654 0.361,-0.651 0.393,-0.646C0.425,-0.641 0.45,-0.635 0.467,-0.629L0.467,-0.557C0.443,-0.566 0.417,-0.572 0.389,-0.577C0.361,-0.582 0.332,-0.584 0.302,-0.584C0.247,-0.584 0.205,-0.576 0.176,-0.56C0.147,-0.544 0.132,-0.516 0.132,-0.477C0.132,-0.455 0.137,-0.437 0.148,-0.424C0.158,-0.41 0.175,-0.398 0.2,-0.389C0.225,-0.379 0.259,-0.369 0.303,-0.358C0.356,-0.345 0.397,-0.33 0.426,-0.313C0.455,-0.295 0.476,-0.274 0.488,-0.25C0.5,-0.226 0.506,-0.199 0.506,-0.168C0.506,-0.111 0.485,-0.068 0.444,-0.037C0.403,-0.005 0.341,0.01 0.259,0.01Z" style="fill:rgb(38,38,38);fill-rule:nonzero;"/>
                    </g>
                    <g transform="matrix(500,0,0,500,594.376,572.232)">
                        <path d="M0.347,0.01C0.246,0.01 0.172,-0.017 0.123,-0.07C0.074,-0.123 0.05,-0.207 0.05,-0.322C0.05,-0.437 0.074,-0.522 0.123,-0.575C0.172,-0.628 0.246,-0.654 0.347,-0.654C0.448,-0.654 0.523,-0.628 0.572,-0.575C0.62,-0.522 0.644,-0.437 0.644,-0.322C0.644,-0.207 0.62,-0.123 0.572,-0.07C0.523,-0.017 0.448,0.01 0.347,0.01ZM0.347,-0.06C0.396,-0.06 0.436,-0.068 0.468,-0.085C0.499,-0.102 0.523,-0.129 0.539,-0.168C0.554,-0.206 0.562,-0.257 0.562,-0.322C0.562,-0.387 0.554,-0.438 0.539,-0.477C0.523,-0.515 0.499,-0.542 0.468,-0.559C0.436,-0.576 0.396,-0.584 0.347,-0.584C0.298,-0.584 0.258,-0.576 0.227,-0.559C0.195,-0.542 0.171,-0.515 0.156,-0.477C0.14,-0.438 0.132,-0.387 0.132,-0.322C0.132,-0.257 0.14,-0.206 0.156,-0.168C0.171,-0.129 0.195,-0.102 0.227,-0.085C0.258,-0.068 0.298,-0.06 0.347,-0.06Z" style="fill:rgb(38,38,38);fill-rule:nonzero;"/>
                    </g>
                    <g transform="matrix(500,0,0,500,936.376,572.232)">
                        <path d="M0.07,-0L0.07,-0.644L0.322,-0.644C0.415,-0.644 0.484,-0.619 0.527,-0.568C0.57,-0.517 0.592,-0.434 0.592,-0.318C0.592,-0.208 0.571,-0.128 0.529,-0.077C0.486,-0.025 0.417,-0 0.322,-0L0.07,-0ZM0.152,-0.064L0.307,-0.064C0.352,-0.064 0.39,-0.071 0.42,-0.085C0.45,-0.098 0.472,-0.123 0.488,-0.16C0.503,-0.197 0.51,-0.249 0.51,-0.318C0.51,-0.386 0.503,-0.439 0.49,-0.477C0.476,-0.515 0.454,-0.542 0.425,-0.557C0.395,-0.572 0.356,-0.579 0.307,-0.579L0.152,-0.579L0.152,-0.064Z" style="fill:rgb(38,38,38);fill-rule:nonzero;"/>
                    </g>
                    <g transform="matrix(500,0,0,500,1244.88,572.232)">
                        <path d="M0.217,0.01C0.187,0.01 0.159,0.005 0.134,-0.006C0.109,-0.017 0.088,-0.033 0.073,-0.054C0.058,-0.075 0.05,-0.101 0.05,-0.133C0.05,-0.176 0.064,-0.212 0.093,-0.24C0.122,-0.267 0.168,-0.281 0.233,-0.281L0.398,-0.281L0.398,-0.31C0.398,-0.336 0.395,-0.357 0.388,-0.372C0.381,-0.387 0.367,-0.398 0.348,-0.405C0.329,-0.412 0.3,-0.415 0.263,-0.415C0.234,-0.415 0.207,-0.413 0.18,-0.408C0.153,-0.403 0.128,-0.397 0.105,-0.389L0.105,-0.457C0.126,-0.465 0.152,-0.472 0.181,-0.477C0.21,-0.482 0.241,-0.484 0.274,-0.484C0.341,-0.484 0.392,-0.47 0.426,-0.443C0.459,-0.416 0.476,-0.371 0.476,-0.31L0.476,-0L0.407,-0L0.401,-0.054C0.38,-0.033 0.355,-0.017 0.326,-0.006C0.297,0.005 0.26,0.01 0.217,0.01ZM0.238,-0.057C0.273,-0.057 0.303,-0.063 0.33,-0.076C0.357,-0.088 0.379,-0.105 0.398,-0.126L0.398,-0.218L0.235,-0.218C0.198,-0.218 0.171,-0.211 0.155,-0.197C0.139,-0.183 0.131,-0.162 0.131,-0.133C0.131,-0.104 0.141,-0.085 0.16,-0.074C0.179,-0.063 0.205,-0.057 0.238,-0.057Z" style="fill:rgb(38,38,38);fill-rule:nonzero;"/>
                    </g>
                </g>
                <g transform="matrix(3.29156,0,0,3.29156,492.501,651.781)">
                    <circle cx="190.754" cy="200.295" r="42.342" style="fill:rgb(255,169,51);"/>
                </g>
                <g id="Kurve" transform="matrix(1.76706,0,0,1.76706,553.341,649.085)">
                    <path d="M327.859,179.75L327.859,373.849L507.075,477.319" style="fill:none;stroke:rgb(38,38,38);stroke-width:16.51px;"/>
                </g>
                <g transform="matrix(-0.361313,-0.625813,0.631718,-0.364723,630.345,2006.02)">
                    <path d="M529.056,622.149L529.056,1096.79" style="fill:none;stroke:rgb(38,38,38);stroke-width:40.17px;stroke-linecap:butt;"/>
                </g>
                <g transform="matrix(-0.361313,-0.625813,0.640252,-0.36965,654.722,2061.64)">
                    <path d="M529.056,622.149L529.056,1096.79" style="fill:none;stroke:rgb(38,38,38);stroke-width:39.9px;stroke-linecap:butt;"/>
                </g>
                <g transform="matrix(116.667,0,0,116.667,2268.98,1410.34)">
                    <g>
                        <path d="M0.136,-0.405C0.154,-0.405 0.169,-0.399 0.181,-0.386C0.193,-0.374 0.199,-0.36 0.199,-0.342C0.199,-0.325 0.193,-0.31 0.18,-0.298C0.168,-0.286 0.153,-0.28 0.136,-0.28C0.119,-0.28 0.104,-0.286 0.092,-0.298C0.08,-0.31 0.074,-0.325 0.074,-0.342C0.074,-0.36 0.08,-0.374 0.092,-0.386C0.104,-0.399 0.119,-0.405 0.136,-0.405Z" style="fill:rgb(38,38,38);fill-rule:nonzero;"/>
                    </g>
                </g>
            </g>
        </g>
    </g>
</svg>
